<svg width="30px" id="Layer_1" data-name="Layer 1" xmlns="http://www.w3.org/2000/svg" viewBox="0 0 771.21 297.55">
    <defs>
        <style>.cls-1{fill:#cb2376;}</style>
    </defs>
    <title>Bounce_Theatre_Final_Logo</title>
    <path class="cls-1" d="M49.77,2.81C76,2.81,91.12,18,91.12,38.36c0,13.65-8.6,24.88-19.45,28.44,12,2.8,23.57,13.84,23.57,31.05,0,21.71-16.47,37.61-41.54,37.61H.19V2.81ZM45.1,55.94c10.29,0,17-5.42,17-14.4,0-8.61-5.8-14.22-17.4-14.22H29V55.94Zm2.43,55.39c11.41,0,18.33-6,18.33-15.53,0-9.17-6.73-15.53-18.33-15.53H29v31.06Z"/>
    <path class="cls-1" d="M177,.19c37.23,0,68.85,27.13,68.85,69.23,0,41.91-31.62,69-68.85,69-37.42,0-69-27.13-69-69C108,27.32,139.58.19,177,.19Zm0,109.08c18.33,0,38.17-12.34,38.17-40S195.33,29,177,29c-18.53,0-38.36,12.53-38.36,40.22S158.47,109.27,177,109.27Z"/>
    <path class="cls-1" d="M265.86,87.56V2.81h29.57V85.13c0,16.09,9,24.14,23,24.14s23-8,23-24.14V2.81H371V87.56c0,33.31-23.38,50.9-52.57,50.9S265.86,120.87,265.86,87.56Z"/>
    <path class="cls-1" d="M482.71,135.46,428.07,48.27v87.19H398.7V2.81h35.92l49.77,80.64V2.81H514V135.46Z"/>
    <path class="cls-1" d="M534.9,69.42C534.9,28.07,566.34,0,603.38,0c39.86,0,57.44,25.63,61.75,44.72l-27.88,8.79c-2.06-9.17-10.48-24.7-33.87-24.7-17.77,0-37.79,12.73-37.79,40.61,0,24.88,18.33,39.29,38.17,39.29,23,0,32.18-15.35,34.8-24.89l28.25,8.05c-4.3,18.33-21.89,46.4-63,46.4C565.59,138.27,534.9,110.76,534.9,69.42Z"/>
    <path class="cls-1" d="M687,135.46V2.81h84V30.68H716.57V55.94H766V82h-49.4V107.4h54.64v28.06Z"/>
    <path class="cls-1" d="M65.76,200v97.58H38.12V200H0V173.56H104.05V200Z"/>
    <path class="cls-1" d="M198,297.55V248.23H148.47v49.32H120.84v-124h27.63v48.62H198V173.56h27.81v124Z"/>
    <path class="cls-1" d="M252.52,297.55v-124H331v26.06H280.15v23.61h46.17v24.3H280.15v23.79h51.07v26.23Z"/>
    <path class="cls-1" d="M428.62,272.37H380.71l-8.92,25.18h-29l46.69-124h32l46.17,124H437.54ZM389.8,247.18h30.08L405,204.34Z"/>
    <path class="cls-1" d="M527.08,200v97.58H499.45V200H461.33V173.56H565.38V200Z"/>
    <path class="cls-1" d="M619.59,251.38H609.8v46.17H582.17v-124h49.14c24.48,0,40.22,16.79,40.22,38.82,0,16.79-9.27,29.56-24.48,35l25.18,50.19H641.8Zm6.47-23.78c11.37,0,17.49-6.3,17.49-15,0-9.27-6.12-15-17.49-15H609.8V227.6Z"/>
    <path class="cls-1" d="M692,297.55v-124h78.52v26.06H719.62v23.61h46.17v24.3H719.62v23.79h51.06v26.23Z"/>
</svg>